<?xml version="1.0" encoding="utf-8"?>
<!-- Generator: Adobe Illustrator 22.0.0, SVG Export Plug-In . SVG Version: 6.00 Build 0)  -->
<svg version="1.1" id="Слой_1" xmlns="http://www.w3.org/2000/svg" xmlns:xlink="http://www.w3.org/1999/xlink" x="0px" y="0px"
	 viewBox="0 0 260 60" style="enable-background:new 0 0 260 60;" xml:space="preserve">
<style type="text/css">
	.st0{fill:#ED0642;}
	.st1{enable-background:new    ;}
	.st2{fill:#FFFFFF;}
</style>
<g>
	<path class="st0" d="M47.6,32.6l-16.3-31L2.7,58.7L66,27.4L47.6,32.6z M22.1,40.7l8.8-21l7.6,14.6L22.1,40.7z"/>
	<polygon class="st0" points="45.9,50.5 45.9,52.4 57.6,52.4 54.1,46.3 	"/>
</g>
<g class="st1">
	<path class="st2" d="M92.4,29.9h-5.5l-1.4-3.8h-9.7l-1.4,3.8h-5.5l8.8-22.7h6.1L92.4,29.9z M84.2,21.8L80.6,12l-3.5,9.8H84.2z"/>
	<path class="st2" d="M112.4,27.8c-1.7,1.7-4.3,2.5-7.6,2.5c-3.4,0-5.9-0.9-7.6-2.6c-1.7-1.7-2.6-4-2.6-6.9V7.2h4.9v13.5
		c0,1.6,0.5,2.9,1.4,3.9c0.9,1,2.2,1.4,3.9,1.4s3-0.5,3.9-1.4c0.9-1,1.4-2.3,1.4-3.9V7.2h4.9v13.6C115,23.7,114.1,26.1,112.4,27.8z"
		/>
	<path class="st2" d="M129.5,29.9h-4.9V11.5H118V7.2h18.1v4.3h-6.6V29.9z"/>
	<path class="st2" d="M150,30.3c-3.4,0-6.3-1.1-8.5-3.3c-2.2-2.2-3.3-5-3.3-8.4c0-3.4,1.1-6.2,3.3-8.4c2.2-2.2,5.1-3.3,8.5-3.3
		c3.4,0,6.3,1.1,8.5,3.3c2.2,2.2,3.3,5,3.3,8.4c0,3.4-1.1,6.2-3.3,8.4C156.2,29.2,153.4,30.3,150,30.3z M145,23.9
		c1.3,1.4,2.9,2.1,5,2.1s3.7-0.7,5-2.1c1.3-1.4,1.9-3.2,1.9-5.3c0-2.2-0.6-3.9-1.9-5.3c-1.3-1.4-2.9-2.1-5-2.1s-3.7,0.7-5,2.1
		c-1.3,1.4-1.9,3.2-1.9,5.3C143.1,20.7,143.7,22.5,145,23.9z"/>
	<path class="st2" d="M182,30.3c-4,0-7.2-1.2-9.6-3.6L175,23c1.9,2,4.4,3.1,7.2,3.1c1.2,0,2.2-0.2,2.9-0.7s1-1.1,1-1.8
		c0-0.6-0.3-1.1-1-1.5c-0.6-0.4-1.5-0.7-2.4-0.9c-1-0.2-2-0.4-3.1-0.8c-1.1-0.3-2.2-0.7-3.1-1.2c-1-0.4-1.8-1.1-2.4-2
		c-0.6-0.9-1-2.1-1-3.4c0-1.9,0.8-3.6,2.3-4.9c1.6-1.3,3.6-2,6.3-2c3.6,0,6.6,1.1,8.8,3.2l-2.7,3.5c-1.8-1.7-4-2.5-6.6-2.5
		c-1,0-1.8,0.2-2.4,0.6c-0.6,0.4-0.9,1-0.9,1.7c0,0.5,0.3,1,1,1.4c0.6,0.4,1.5,0.7,2.4,0.8c1,0.2,2,0.4,3.1,0.8s2.2,0.7,3.1,1.2
		c1,0.4,1.8,1.1,2.4,2.1c0.6,0.9,1,2.1,1,3.4c0,2.2-0.8,3.9-2.3,5.3C187.2,29.6,184.9,30.3,182,30.3z"/>
	<path class="st2" d="M213.7,29.9h-6l-6.9-9.1l-1.8,2.1v7h-4.8V7.2h4.8v10.1l8-10.1h6l-9,10.6L213.7,29.9z"/>
	<path class="st2" d="M220.8,29.9H216V7.2h4.8V29.9z"/>
	<path class="st2" d="M239.7,29.9h-14.4V7.2h4.8v18.4h9.6V29.9z"/>
	<path class="st2" d="M257.5,29.9h-14.4V7.2h4.8v18.4h9.6V29.9z"/>
</g>
<polygon class="st0" points="232.2,57 78,57 103,36 257.2,36 "/>
<g class="st1">
	<path class="st2" d="M112.9,50.1c-0.8,0-1.5-0.1-2.1-0.4c-0.6-0.3-1.1-0.7-1.4-1.1l0.7-0.7c0.3,0.4,0.7,0.7,1.2,0.9s1,0.3,1.6,0.3
		c0.7,0,1.3-0.2,1.7-0.5c0.4-0.3,0.6-0.7,0.6-1.3c0-0.6-0.2-1-0.7-1.2c-0.4-0.3-1-0.4-1.8-0.4h-1.9v-1h1.9c0.7,0,1.2-0.1,1.6-0.4
		c0.4-0.3,0.6-0.6,0.6-1.2c0-0.5-0.2-0.9-0.6-1.2c-0.4-0.3-1-0.4-1.6-0.4c-1.1,0-1.9,0.4-2.6,1.1l-0.6-0.7c0.4-0.4,0.9-0.8,1.4-1
		c0.6-0.3,1.2-0.4,1.9-0.4c1,0,1.7,0.2,2.4,0.7c0.6,0.4,1,1.1,1,1.8c0,0.6-0.2,1.1-0.6,1.5c-0.4,0.4-0.9,0.6-1.4,0.7
		c0.5,0,1,0.3,1.5,0.7s0.7,0.9,0.7,1.6c0,0.8-0.3,1.4-1,1.9S114,50.1,112.9,50.1z"/>
	<path class="st2" d="M126.3,49.9h-1.3l-0.8-2.1h-4.6l-0.8,2.1h-1.3l3.8-9.3h1.4L126.3,49.9z M123.8,46.8l-2-5l-2,5H123.8z"/>
	<path class="st2" d="M137.6,40.6h1.2v8.3h0.8v2.8h-1.2v-1.7h-10.9v-9.3h1.2v8.3h3.9v-8.3h1.2v8.3h3.9V40.6z"/>
	<path class="st2" d="M142.3,49.9h-1.1v-9.3h1.2v7.3l5.4-7.3h1.2v9.3h-1.2v-7.4L142.3,49.9z"/>
	<path class="st2" d="M154.5,49.9h-1.2v-8.3h-3v-1h7.1v1h-3V49.9z"/>
	<path class="st2" d="M167,49.9h-1.3l-0.8-2.1h-4.6l-0.8,2.1h-1.3l3.8-9.3h1.4L167,49.9z M164.5,46.8l-2-5l-2,5H164.5z"/>
	<path class="st2" d="M173,49.9h-1.1v-9.3h1.2v7.3l5.4-7.3h1.2v9.3h-1.2v-7.4L173,49.9z"/>
	<path class="st2" d="M186.3,50.1c-0.4,0-0.7-0.1-1.1-0.2c-0.3-0.1-0.6-0.3-0.8-0.5l0.5-0.9c0.4,0.4,0.8,0.6,1.3,0.6
		c0.4,0,0.6-0.1,0.8-0.3c0.2-0.2,0.5-0.5,0.7-1l0.2-0.3l-3.6-6.8h1.3l2.9,5.8l2.9-5.8h1.3l-4.1,7.7c-0.3,0.6-0.7,1.1-1,1.4
		C187.4,49.9,186.9,50.1,186.3,50.1z"/>
	<path class="st2" d="M202,49.9h-1.4l-3-4l-3,4h-1.4l3.6-4.8l-3.4-4.5h1.4l2.8,3.7l2.8-3.7h1.4l-3.4,4.5L202,49.9z"/>
	<path class="st2" d="M207.5,50.1c-1.4,0-2.5-0.5-3.3-1.4c-0.9-0.9-1.3-2.1-1.3-3.5s0.4-2.5,1.3-3.5c0.9-0.9,2-1.4,3.3-1.4
		c1.4,0,2.5,0.5,3.3,1.4c0.9,0.9,1.3,2.1,1.3,3.5s-0.4,2.5-1.3,3.5C210,49.6,208.9,50.1,207.5,50.1z M207.5,49c1,0,1.9-0.4,2.5-1.1
		c0.6-0.7,0.9-1.6,0.9-2.7c0-1.1-0.3-2-0.9-2.7c-0.6-0.7-1.5-1.1-2.5-1.1c-1,0-1.9,0.4-2.5,1.1c-0.6,0.7-0.9,1.6-0.9,2.7
		c0,1.1,0.3,2,0.9,2.7C205.7,48.7,206.5,49,207.5,49z"/>
	<path class="st2" d="M213.3,51.6V49c0.4,0,0.7-0.1,1-0.3c0.2-0.2,0.5-0.5,0.7-1.1c0.2-0.5,0.4-1.3,0.5-2.4l0.6-4.7h5.7v8.3h0.9v2.8
		h-1.2v-1.7h-7v1.7H213.3z M216.6,45.3c-0.2,1.8-0.7,3-1.4,3.5h5.4v-7.3h-3.5L216.6,45.3z"/>
</g>
</svg>
