<?xml version="1.0" encoding="iso-8859-1"?>
<!-- Generator: Adobe Illustrator 19.0.0, SVG Export Plug-In . SVG Version: 6.00 Build 0)  -->
<svg xmlns="http://www.w3.org/2000/svg" xmlns:xlink="http://www.w3.org/1999/xlink" version="1.1" id="Capa_1" x="0px" y="0px" viewBox="0 0 512.002 512.002" style="enable-background:new 0 0 512.002 512.002;" xml:space="preserve" width="512px" height="512px">
<g>
	<g>
		<path d="M509.76,248.118c-0.029-0.046-0.053-0.094-0.083-0.141l-76.001-120.002c-2.8-4.421-7.636-6.974-12.672-6.974h-0.045    H91.044h-0.045c-5.213,0-9.973,2.711-12.672,6.974c-0.771,1.217-75.674,119.48-76.084,120.143    c-0.084,0.136-0.163,0.275-0.243,0.414c-3.4,5.912-2.355,13.273,2.335,18.018c0.019,0.02,0.036,0.041,0.056,0.06l241.003,241.003    c0.038,0.038,0.081,0.07,0.119,0.108c5.793,5.669,15.106,5.743,20.975,0c0.039-0.038,0.081-0.069,0.119-0.108l241.003-241.003    c0.019-0.02,0.036-0.041,0.056-0.06C512.523,261.639,513.408,254.024,509.76,248.118z M393.939,151.002l-49.063,78.5l-58.875-78.5    H393.939z M316.002,241.003H196l60.001-80.001L316.002,241.003z M226.001,151.002l-58.875,78.5l-49.063-78.5H226.001z     M90.915,164.169l48.021,76.834H42.253L90.915,164.169z M51.211,271.004H155.59l62.212,166.589L51.211,271.004z M256,454.13    l-68.387-183.127h136.775L256,454.13z M294.201,437.593l62.212-166.589H460.79L294.201,437.593z M373.066,241.003l48.022-76.834    l48.661,76.834H373.066z" fill="#eb2a67"/>
	</g>
</g>
<g>
	<g>
		<path d="M256.001,0c-8.284,0-15,6.716-15,15v60.001c0,8.284,6.716,15,15,15c8.284,0,15-6.716,15-15V15    C271.001,6.716,264.285,0,256.001,0z" fill="#eb2a67"/>
	</g>
</g>
<g>
	<g>
		<path d="M195.357,68.617L152.93,41.19c-6.958-4.498-16.243-2.503-20.741,4.454c-4.497,6.958-2.503,16.243,4.454,20.741    l42.428,27.427c6.96,4.499,16.245,2.501,20.741-4.454C204.309,82.4,202.314,73.115,195.357,68.617z" fill="#eb2a67"/>
	</g>
</g>
<g>
	<g>
		<path d="M379.814,45.644c-4.498-6.957-13.783-8.951-20.741-4.454l-42.428,27.427c-6.957,4.498-8.951,13.783-4.454,20.741    c4.494,6.952,13.777,8.954,20.741,4.454l42.428-27.427C382.317,61.887,384.311,52.602,379.814,45.644z" fill="#eb2a67"/>
	</g>
</g>
<g>
</g>
<g>
</g>
<g>
</g>
<g>
</g>
<g>
</g>
<g>
</g>
<g>
</g>
<g>
</g>
<g>
</g>
<g>
</g>
<g>
</g>
<g>
</g>
<g>
</g>
<g>
</g>
<g>
</g>
</svg>
