<svg xmlns="http://www.w3.org/2000/svg" xmlns:xlink="http://www.w3.org/1999/xlink" width="17" height="22" viewBox="0 0 17 22">
  <metadata><?xpacket begin="﻿" id="W5M0MpCehiHzreSzNTczkc9d"?>
<x:xmpmeta xmlns:x="adobe:ns:meta/" x:xmptk="Adobe XMP Core 5.6-c142 79.160924, 2017/07/13-01:06:39        ">
   <rdf:RDF xmlns:rdf="http://www.w3.org/1999/02/22-rdf-syntax-ns#">
      <rdf:Description rdf:about=""/>
   </rdf:RDF>
</x:xmpmeta>
                                                                                                    
                                                                                                    
                                                                                                    
                                                                                                    
                                                                                                    
                                                                                                    
                                                                                                    
                                                                                                    
                                                                                                    
                                                                                                    
                                                                                                    
                                                                                                    
                                                                                                    
                                                                                                    
                                                                                                    
                                                                                                    
                                                                                                    
                                                                                                    
                                                                                                    
                                                                                                    
                           
<?xpacket end="w"?></metadata>
<defs>
    <style>
      .cls-1 {
        fill-rule: evenodd;
        filter: url(#filter);
      }
    </style>
    <filter id="filter" x="0.281" y="0.5" width="16.438" height="21" filterUnits="userSpaceOnUse">
      <feFlood result="flood" flood-color="#ffcb69"/>
      <feComposite result="composite" operator="in" in2="SourceGraphic"/>
      <feBlend result="blend" in2="SourceGraphic"/>
    </filter>
  </defs>
  <path id="Forma_1" data-name="Forma 1" class="cls-1" d="M12.875,8.2H4.125a0.35,0.35,0,1,0,0,.7h8.751A0.35,0.35,0,0,0,12.875,8.2ZM4.125,6.1h3.5a0.35,0.35,0,0,0,0-.7h-3.5A0.35,0.35,0,1,0,4.125,6.1ZM12.875,11H4.125a0.35,0.35,0,1,0,0,.7h8.751A0.35,0.35,0,1,0,12.875,11Zm0,2.8H4.125a0.35,0.35,0,1,0,0,.7h8.751A0.35,0.35,0,1,0,12.875,13.8Zm0,2.8H4.125a0.35,0.35,0,1,0,0,.7h8.751A0.35,0.35,0,0,0,12.875,16.6ZM11.62,0.5H0.274v21H16.726V5.6Zm0.205,1.195L15.531,5.4H11.825V1.694ZM0.974,20.8V1.2H11.125V6.1h4.9V20.8H0.974Z"/>
</svg>
