<svg xmlns="http://www.w3.org/2000/svg" width="23" height="23" viewBox="0 0 23 23">
  <metadata><?xpacket begin="﻿" id="W5M0MpCehiHzreSzNTczkc9d"?>
<x:xmpmeta xmlns:x="adobe:ns:meta/" x:xmptk="Adobe XMP Core 5.6-c142 79.160924, 2017/07/13-01:06:39        ">
   <rdf:RDF xmlns:rdf="http://www.w3.org/1999/02/22-rdf-syntax-ns#">
      <rdf:Description rdf:about=""/>
   </rdf:RDF>
</x:xmpmeta>
                                                                                                    
                                                                                                    
                                                                                                    
                                                                                                    
                                                                                                    
                                                                                                    
                                                                                                    
                                                                                                    
                                                                                                    
                                                                                                    
                                                                                                    
                                                                                                    
                                                                                                    
                                                                                                    
                                                                                                    
                                                                                                    
                                                                                                    
                                                                                                    
                                                                                                    
                                                                                                    
                           
<?xpacket end="w"?></metadata>
<defs>
    <style>
      .cls-1 {
        fill: #7b519d;
      }

      .cls-2 {
        fill: #fff;
        fill-rule: evenodd;
      }
    </style>
  </defs>
  <circle class="cls-1" cx="11.5" cy="11.5" r="11.5"/>
  <path class="cls-2" d="M15.515,10.616a3.363,3.363,0,0,0-3.024-3.17c-0.033,0-.07-0.01-0.109-0.016A1.627,1.627,0,0,0,12.127,7.4a0.464,0.464,0,0,0-.394.718,0.672,0.672,0,0,0,.476.2c0.047,0.006.092,0.012,0.129,0.02a2.375,2.375,0,0,1,2.267,2.3c0.006,0.036.009,0.08,0.012,0.127a0.459,0.459,0,0,0,.434.537h0a0.683,0.683,0,0,0,.107-0.008,0.444,0.444,0,0,0,.356-0.546,0.781,0.781,0,0,1,0-.115A0.16,0.16,0,0,0,15.515,10.616ZM12.029,6.878c0.045,0,.087.006,0.122,0.011,2.48,0.372,3.62,1.515,3.936,3.949a1.4,1.4,0,0,1,.007.145,0.485,0.485,0,0,0,.446.594h0.014a0.434,0.434,0,0,0,.323-0.119A0.652,0.652,0,0,0,17,10.949c0-.04,0-0.079,0-0.112a4.981,4.981,0,0,0-4.735-4.83,0.15,0.15,0,0,0-.031,0l-0.03,0c-0.025,0-.057,0-0.09,0S12.022,6,11.975,6a0.443,0.443,0,0,0-.494.449A0.459,0.459,0,0,0,12.029,6.878Zm3.939,7.106c-0.053-.039-0.107-0.08-0.158-0.12-0.271-.213-0.559-0.408-0.837-0.6L14.8,13.149a1.757,1.757,0,0,0-.981-0.363,1.275,1.275,0,0,0-1.058.653,0.565,0.565,0,0,1-.483.285,0.986,0.986,0,0,1-.388-0.1,4.622,4.622,0,0,1-2.445-2.318,0.747,0.747,0,0,1,.247-1.087,1.1,1.1,0,0,0,.62-0.965A5.522,5.522,0,0,0,8.319,6.614a1.158,1.158,0,0,0-.769,0A2.21,2.21,0,0,0,6.166,7.721,2.013,2.013,0,0,0,6.2,9.386,13.4,13.4,0,0,0,9.222,13.87a14.7,14.7,0,0,0,4.59,2.968,2.623,2.623,0,0,0,.454.131l0.1,0.024a0.217,0.217,0,0,0,.045.006h0.014a2.6,2.6,0,0,0,2.162-1.6A1.146,1.146,0,0,0,15.968,13.984ZM12.4,8.855a0.525,0.525,0,0,0-.549.308,0.4,0.4,0,0,0,.018.358,0.555,0.555,0,0,0,.416.214,0.968,0.968,0,0,1,.912.957,0.459,0.459,0,0,0,.443.447h0a0.441,0.441,0,0,0,.052,0,0.482,0.482,0,0,0,.4-0.6,1.686,1.686,0,0,0-.547-1.155A1.65,1.65,0,0,0,12.4,8.855Z"/>
</svg>
