<svg xmlns="http://www.w3.org/2000/svg" width="23" height="23" viewBox="0 0 23 23">
  <metadata><?xpacket begin="﻿" id="W5M0MpCehiHzreSzNTczkc9d"?>
<x:xmpmeta xmlns:x="adobe:ns:meta/" x:xmptk="Adobe XMP Core 5.6-c142 79.160924, 2017/07/13-01:06:39        ">
   <rdf:RDF xmlns:rdf="http://www.w3.org/1999/02/22-rdf-syntax-ns#">
      <rdf:Description rdf:about=""/>
   </rdf:RDF>
</x:xmpmeta>
                                                                                                    
                                                                                                    
                                                                                                    
                                                                                                    
                                                                                                    
                                                                                                    
                                                                                                    
                                                                                                    
                                                                                                    
                                                                                                    
                                                                                                    
                                                                                                    
                                                                                                    
                                                                                                    
                                                                                                    
                                                                                                    
                                                                                                    
                                                                                                    
                                                                                                    
                                                                                                    
                           
<?xpacket end="w"?></metadata>
<defs>
    <style>
      .cls-1 {
        fill: #35ade1;
      }

      .cls-2 {
        fill: #fff;
        fill-rule: evenodd;
      }
    </style>
  </defs>
  <circle class="cls-1" cx="11.5" cy="11.5" r="11.5"/>
  <path class="cls-2" d="M4.23,11.274l3,1.087,1.159,3.624a0.357,0.357,0,0,0,.56.164l1.67-1.323a0.509,0.509,0,0,1,.607-0.017l3.012,2.125a0.356,0.356,0,0,0,.553-0.207L16.993,6.413a0.35,0.35,0,0,0-.473-0.39L4.226,10.633A0.34,0.34,0,0,0,4.23,11.274ZM8.2,11.782l5.854-3.5a0.1,0.1,0,0,1,.123.157L9.344,12.8a0.963,0.963,0,0,0-.31.582L8.869,14.568a0.152,0.152,0,0,1-.3.021L7.94,12.427A0.566,0.566,0,0,1,8.2,11.782Z"/>
</svg>
