<svg xmlns="http://www.w3.org/2000/svg" width="124" height="124" viewBox="0 0 124 124">
  <metadata><?xpacket begin="﻿" id="W5M0MpCehiHzreSzNTczkc9d"?>
<x:xmpmeta xmlns:x="adobe:ns:meta/" x:xmptk="Adobe XMP Core 5.6-c142 79.160924, 2017/07/13-01:06:39        ">
   <rdf:RDF xmlns:rdf="http://www.w3.org/1999/02/22-rdf-syntax-ns#">
      <rdf:Description rdf:about=""/>
   </rdf:RDF>
</x:xmpmeta>
                                                                                                    
                                                                                                    
                                                                                                    
                                                                                                    
                                                                                                    
                                                                                                    
                                                                                                    
                                                                                                    
                                                                                                    
                                                                                                    
                                                                                                    
                                                                                                    
                                                                                                    
                                                                                                    
                                                                                                    
                                                                                                    
                                                                                                    
                                                                                                    
                                                                                                    
                                                                                                    
                           
<?xpacket end="w"?></metadata>
<defs>
    <style>
      .cls-1 {
        fill: #fff;
      }

      .cls-2 {
        fill: #2eb743;
        fill-rule: evenodd;
      }
    </style>
  </defs>
  <ellipse class="cls-1" cx="62" cy="58.563" rx="48.219" ry="44.781"/>
  <path id="Forma_1" data-name="Forma 1" class="cls-2" d="M62.016,0H61.985A61.962,61.962,0,0,0,11.8,98.34L4.076,121.373l23.831-7.619A61.989,61.989,0,1,0,62.016,0ZM98.092,87.552c-1.5,4.224-7.432,7.727-12.168,8.75-3.239.69-7.471,1.24-21.716-4.666-18.22-7.548-29.954-26.063-30.868-27.264-0.876-1.2-7.362-9.8-7.362-18.7a19.793,19.793,0,0,1,6.34-15.089,9.008,9.008,0,0,1,6.339-2.224c0.767,0,1.457.039,2.077,0.07,1.821,0.078,2.736.186,3.937,3.061,1.5,3.6,5.138,12.5,5.572,13.415a3.69,3.69,0,0,1,.264,3.356A10.713,10.713,0,0,1,48.5,51.1c-0.914,1.054-1.782,1.86-2.7,2.992-0.837.984-1.782,2.038-.729,3.86a55.031,55.031,0,0,0,10.06,12.5,45.58,45.58,0,0,0,14.539,8.967,3.92,3.92,0,0,0,4.371-.69,75,75,0,0,0,4.844-6.417,3.46,3.46,0,0,1,4.448-1.349c1.674,0.581,10.532,4.96,12.353,5.867s3.022,1.349,3.464,2.116S99.588,83.32,98.092,87.552Z"/>
</svg>
