<svg xmlns="http://www.w3.org/2000/svg" width="22.97" height="20" viewBox="0 0 22.97 20">
  <metadata><?xpacket begin="﻿" id="W5M0MpCehiHzreSzNTczkc9d"?>
<x:xmpmeta xmlns:x="adobe:ns:meta/" x:xmptk="Adobe XMP Core 5.6-c142 79.160924, 2017/07/13-01:06:39        ">
   <rdf:RDF xmlns:rdf="http://www.w3.org/1999/02/22-rdf-syntax-ns#">
      <rdf:Description rdf:about=""/>
   </rdf:RDF>
</x:xmpmeta>
                                                                                                    
                                                                                                    
                                                                                                    
                                                                                                    
                                                                                                    
                                                                                                    
                                                                                                    
                                                                                                    
                                                                                                    
                                                                                                    
                                                                                                    
                                                                                                    
                                                                                                    
                                                                                                    
                                                                                                    
                                                                                                    
                                                                                                    
                                                                                                    
                                                                                                    
                                                                                                    
                           
<?xpacket end="w"?></metadata>
<defs>
    <style>
      .cls-1 {
        fill: #ffcb69;
        fill-rule: evenodd;
      }
    </style>
  </defs>
  <path id="Forma_1" data-name="Forma 1" class="cls-1" d="M1098.54,31.157l-4.68-4.694a1.569,1.569,0,0,0-2.22,0l-1.1,1.1a1.623,1.623,0,0,0-.37.582l-5.14-.924h0a4.288,4.288,0,0,0-5.04,3.369l-0.24,1.181a2.408,2.408,0,1,0,4.72.953l0.14-.722,2.31,0.2,6.03,6.043,1.09,1.1a0.572,0.572,0,0,1,0,.8,0.564,0.564,0,0,1-.8,0l-2.93-2.934a0.522,0.522,0,0,0-.74,0,0.531,0.531,0,0,0,0,.74l2.93,2.934a0.585,0.585,0,0,1,0,.8,0.563,0.563,0,0,1-.8,0l-2.93-2.934a0.523,0.523,0,0,0-.74,0,0.531,0.531,0,0,0,0,.74l2.93,2.934a0.573,0.573,0,0,1,0,.8,0.566,0.566,0,0,1-.4.167,0.549,0.549,0,0,1-.4-0.167l-2.93-2.934a0.523,0.523,0,0,0-.74,0,0.531,0.531,0,0,0,0,.74l2.93,2.934a0.573,0.573,0,0,1,0,.8,0.564,0.564,0,0,1-.8,0L1078.26,34.4l-1.36-1.371a0.524,0.524,0,0,0-.74,0,0.514,0.514,0,0,0,0,.741l1.36,1.371,1.49,1.492-0.82.823a1.444,1.444,0,0,0,0,2.016l0.27,0.268a1.405,1.405,0,0,0,.86.41,1.49,1.49,0,0,0,.41.866l0.27,0.269a1.42,1.42,0,0,0,.86.409,1.49,1.49,0,0,0,.41.866l0.27,0.269a1.434,1.434,0,0,0,.86.41,1.492,1.492,0,0,0,.41.865l0.27,0.268a1.42,1.42,0,0,0,2.01,0l0.82-.822,1.97,1.97a1.591,1.591,0,0,0,1.14.473,1.594,1.594,0,0,0,1.6-1.547,1.59,1.59,0,0,0,1.54-1.545,1.628,1.628,0,0,0,1.08-.469,1.6,1.6,0,0,0,.46-1.075,1.612,1.612,0,0,0,1.08-2.754l-0.73-.725,2.65-2.654,1.84-1.844A1.581,1.581,0,0,0,1098.54,31.157Zm-19.61,7.576a0.375,0.375,0,0,1,0-.536l0.77-.772,0.8,0.8-0.77.771a0.372,0.372,0,0,1-.53,0Zm1.54,1.545a0.375,0.375,0,0,1,0-.536l0.77-.772,0.8,0.805-0.77.771a0.372,0.372,0,0,1-.53,0Zm1.54,1.545a0.381,0.381,0,0,1,0-.536l0.77-.771,0.8,0.8-0.77.771a0.372,0.372,0,0,1-.53,0Zm2.34,1.813a0.372,0.372,0,0,1-.53,0l-0.27-.268a0.375,0.375,0,0,1,0-.535l0.77-.772,0.8,0.8Zm8.97-6.495-5.8-5.808a0.5,0.5,0,0,0-.32-0.151l-2.96-.259-0.05,0a0.527,0.527,0,0,0-.51.42l-0.24,1.18a1.359,1.359,0,0,1-1.6,1.07,1.363,1.363,0,0,1-1.07-1.609l0.24-1.181a3.247,3.247,0,0,1,3.82-2.548c0.01,0,.01,0,0.01,0l5.08,0.911,0.62,0.627,5.05,5.066Zm4.48-4.5-1.47,1.476-5.05-5.066a0.513,0.513,0,0,1,0-.745l1.1-1.1a0.521,0.521,0,0,1,.74,0l4.68,4.694A0.513,0.513,0,0,1,1097.8,32.642Zm-1.26-.688a0.523,0.523,0,1,1-.52.523A0.519,0.519,0,0,1,1096.54,31.954Z" transform="translate(-1076.03 -26)"/>
</svg>
