<svg xmlns="http://www.w3.org/2000/svg" width="20" height="20" viewBox="0 0 20 20">
  <metadata><?xpacket begin="﻿" id="W5M0MpCehiHzreSzNTczkc9d"?>
<x:xmpmeta xmlns:x="adobe:ns:meta/" x:xmptk="Adobe XMP Core 5.6-c142 79.160924, 2017/07/13-01:06:39        ">
   <rdf:RDF xmlns:rdf="http://www.w3.org/1999/02/22-rdf-syntax-ns#">
      <rdf:Description rdf:about=""/>
   </rdf:RDF>
</x:xmpmeta>
                                                                                                    
                                                                                                    
                                                                                                    
                                                                                                    
                                                                                                    
                                                                                                    
                                                                                                    
                                                                                                    
                                                                                                    
                                                                                                    
                                                                                                    
                                                                                                    
                                                                                                    
                                                                                                    
                                                                                                    
                                                                                                    
                                                                                                    
                                                                                                    
                                                                                                    
                                                                                                    
                           
<?xpacket end="w"?></metadata>
<defs>
    <style>
      .cls-1 {
        fill: #ffcb69;
        fill-rule: evenodd;
      }
    </style>
  </defs>
  <path class="cls-1" d="M937.091,36.084V33.273a1.814,1.814,0,0,0-1.673-1.8l-2.611-4.56a1.8,1.8,0,0,0-2.468-.665l-8.949,5.21h-1.572A1.82,1.82,0,0,0,918,33.273V44.182A1.82,1.82,0,0,0,919.818,46h15.455a1.82,1.82,0,0,0,1.818-1.819V41.371a1.361,1.361,0,0,0,.909-1.28V37.364A1.361,1.361,0,0,0,937.091,36.084Zm-2.73-4.629H930.4l2.972-1.73Zm-1.442-2.518-4.327,2.518H926.8l5.672-3.3ZM930.8,27.031a0.88,0.88,0,0,1,.675-0.091,0.894,0.894,0,0,1,.546.422v0l-7.028,4.091H923.2Zm5.385,17.151a0.91,0.91,0,0,1-.909.909H919.818a0.91,0.91,0,0,1-.909-0.909V33.273a0.91,0.91,0,0,1,.909-0.909h15.455a0.91,0.91,0,0,1,.909.909V36h-2.727a2.727,2.727,0,1,0,0,5.455h2.727v2.727h0Zm0.909-4.091a0.455,0.455,0,0,1-.455.455h-3.181a1.818,1.818,0,1,1,0-3.636h3.181a0.455,0.455,0,0,1,.455.454v2.727Zm-3.636-2.272a0.909,0.909,0,1,0,.909.909A0.909,0.909,0,0,0,933.455,37.819Z" transform="translate(-918 -26)"/>
</svg>
