<svg xmlns="http://www.w3.org/2000/svg" xmlns:xlink="http://www.w3.org/1999/xlink" viewBox="0 0 599.2 468"><defs><style>.cls-1{fill:#fff;}.cls-2{fill:url(#Безымянный_градиент_4);}.cls-3{fill:#fcb20d;}</style><linearGradient id="Безымянный_градиент_4" x1="299.66" y1="-18.18" x2="299.46" y2="500.84" gradientUnits="userSpaceOnUse"><stop offset="0" stop-color="#fff76a"/><stop offset="1" stop-color="#e9a900"/></linearGradient></defs><title>Logo</title><g id="Слой_2" data-name="Слой 2"><g id="Слой_1-2" data-name="Слой 1"><path class="cls-1" d="M307.79,205.65s-2.3-2.75-2.3-4.58S317.71,197,320.92,197s4.43,5.34,2.29,8.4S307.79,205.65,307.79,205.65Z"/><path class="cls-1" d="M142.29,248.28,109,245.84c.55,2.84,1.63,8.26,2.37,10.7,1,3.39,1.35,6.1,6.77,7.79A234.64,234.64,0,0,0,142,269.26a37.3,37.3,0,0,1,.32-21Z"/><path class="cls-1" d="M467.81,257.13c0,.75.11,1.5.11,2.26a37.7,37.7,0,0,1-2,12c8.06,0,12.91-.06,13.47-.11,4.74-.47,8.46-2.24,9.48-7.32.26-1.32.69-3.82,1.12-6.86Z"/><path class="cls-1" d="M467.32,252.88h23.25c1-8.22,1.7-18.09,0-21.06-2.71-4.74-23-13.54-40.29-19.3s-54.86-8.05-85.33-8.12c-2.27,0-51.64-24.23-76.47-27.74a268.93,268.93,0,0,0-33.58-2.06c-61,.34-113.44,24-113.44,24s-21-1.35-23.7-1.35-5.76,0-5.76,2.37,1.7,10.83,1.7,10.83c-2,3.39-6.1,9.14-6.1,12.53,0,2.6.6,13.56.88,18.52l35.39,2.59a37.66,37.66,0,0,1,70.27,26.8c50.31.14,123.6.35,180.43.45a37.64,37.64,0,1,1,72.75-18.5ZM464.27,223s18.23,7,20.13,9.46.76,9.88.76,9.88-9.12-.19-12.54-1.33-8.73-18-8.73-18ZM128.4,225.35c-1.56,1-16.29-1.32-16.29-1.32.71-4.54,6.78-12,6.78-12s18.87,3.12,19.44,4S130,224.36,128.4,225.35Zm156.82-43.53c14.26.82,59.74,23,59.74,23s-61.69.9-90,1.24l-13.86-24.35A359.37,359.37,0,0,1,285.22,181.82Zm-78.7,16.83c-3.8-1.9-6.51-6.18-7.45-7.83,9.28-4.39,21.53-7.43,38-8.86l13.72,24.09c-4.35,0-7.49.08-8.86.08C232.37,206.13,211.29,201,206.52,198.65Zm176.92,31.58c-1.66,4-9.05,20.79-11.16,23.5a11.44,11.44,0,0,1-9,4.06L230,257.61s124.41-3.32,129.23-3.92,7.53-3.62,10.24-7.83A60.69,60.69,0,0,0,375.83,232c.9-3.31.36-4.8-3.55-5.41s-64.23-6.34-64.23-6.34,61.76,1.21,68.08,1.81S385.64,224.9,383.44,230.23Z"/><path class="cls-1" d="M178.17,226.56a29.24,29.24,0,1,0,29.23,29.23A29.24,29.24,0,0,0,178.17,226.56Zm0,46.42a17.19,17.19,0,1,1,17.18-17.19A17.19,17.19,0,0,1,178.17,273Z"/><path class="cls-1" d="M178.17,247.62a8.18,8.18,0,1,0,8.17,8.17A8.17,8.17,0,0,0,178.17,247.62Zm0,13.17a5,5,0,1,1,5-5A5,5,0,0,1,178.17,260.79Z"/><rect class="cls-1" x="176.89" y="233.01" width="2.56" height="17.48"/><rect class="cls-1" x="176.89" y="261.09" width="2.56" height="17.48"/><rect class="cls-1" x="155.38" y="254.52" width="17.48" height="2.56"/><rect class="cls-1" x="183.47" y="254.52" width="17.48" height="2.56"/><rect class="cls-1" x="166.96" y="237.12" width="2.56" height="17.48" transform="translate(-124.58 190.98) rotate(-45)"/><rect class="cls-1" x="186.82" y="256.98" width="2.56" height="17.48" transform="translate(-132.81 210.87) rotate(-45.01)"/><rect class="cls-1" x="159.5" y="264.45" width="17.48" height="2.56" transform="translate(-138.62 196.81) rotate(-45)"/><rect class="cls-1" x="179.36" y="244.59" width="17.48" height="2.56" transform="translate(-118.76 205) rotate(-45)"/><path class="cls-1" d="M430.26,226.56a29.24,29.24,0,1,0,29.23,29.23A29.24,29.24,0,0,0,430.26,226.56Zm0,46.42a17.19,17.19,0,1,1,17.18-17.19A17.19,17.19,0,0,1,430.26,273Z"/><path class="cls-1" d="M430.26,247.62a8.18,8.18,0,1,0,8.17,8.17A8.17,8.17,0,0,0,430.26,247.62Zm0,13.17a5,5,0,1,1,5-5A5,5,0,0,1,430.26,260.79Z"/><rect class="cls-1" x="428.98" y="233.01" width="2.56" height="17.48"/><rect class="cls-1" x="428.98" y="261.09" width="2.56" height="17.48"/><rect class="cls-1" x="407.47" y="254.52" width="17.48" height="2.56"/><rect class="cls-1" x="435.56" y="254.52" width="17.48" height="2.56"/><rect class="cls-1" x="419.05" y="237.12" width="2.56" height="17.48" transform="translate(-50.73 369.26) rotate(-45)"/><rect class="cls-1" x="438.91" y="256.98" width="2.56" height="17.48" transform="translate(-58.96 389.12) rotate(-45)"/><rect class="cls-1" x="411.59" y="264.45" width="17.48" height="2.56" transform="translate(-64.78 375.04) rotate(-45)"/><rect class="cls-1" x="431.44" y="244.59" width="17.48" height="2.56" transform="translate(-44.93 383.27) rotate(-45)"/><path class="cls-2" d="M117.56,374Q73.08,264.41,74.37,119.76c36.16-5.82,72-15.63,107.87-28.81s75.08-31.26,117.37-54.24c42.29,23,81.21,41.07,117.06,54.24a582.37,582.37,0,0,0,108.18,28.81q1.23,145.16-43,254.24l36.37-12c29.4-77.77,42.91-155.54,40.65-257.26A16.88,16.88,0,0,0,544.46,88.2a547.51,547.51,0,0,1-114-28.2C393.31,46.4,352.21,27.4,307.88,2.39c-5.63-3.18-10.92-3.2-16.54,0-44,25-84.84,44-122.28,57.61A552,552,0,0,1,55.37,88.2c-8.28,1.14-14.09,8.27-15,16.54C38,206.47,51.57,284.22,81,362Z"/><path class="cls-3" d="M78.18,468H67.63a5.2,5.2,0,0,1-5.22-5.22V404.26H48.92a14.65,14.65,0,0,0-14.64,11.11l-12.7,47.41A7.12,7.12,0,0,1,15,468H3.77a3.63,3.63,0,0,1-3.63-4.65l14.07-53.19c4.65-17.58,20.64-21.55,36.75-21.55H78.63c2.61,0,4.65,2.49,4.65,5.21v69A5.11,5.11,0,0,1,78.18,468Z"/><path class="cls-3" d="M164.94,468a5.28,5.28,0,0,1-5.22-5.22V411.4L130.8,462.78c-1.59,2.84-5.11,5.22-8.05,5.22H104.37a5.2,5.2,0,0,1-5.22-5.22v-69a5.13,5.13,0,0,1,5.22-5.21h9.76a5.17,5.17,0,0,1,5.21,5.1v55.46l31.53-55.35c1.59-2.72,4.88-5.21,7.6-5.21h16.34a5.18,5.18,0,0,1,5.1,5.21v69a5.28,5.28,0,0,1-5.22,5.22Z"/><path class="cls-3" d="M262.36,468a5.28,5.28,0,0,1-5.22-5.22V404.26H216.65v58.52a5.28,5.28,0,0,1-5.22,5.22H201a5.2,5.2,0,0,1-5.22-5.22v-69a5.1,5.1,0,0,1,5.11-5.21H272.8a5.19,5.19,0,0,1,5.21,5.21v69a5.3,5.3,0,0,1-5.33,5.22Z"/><path class="cls-3" d="M338.8,468a5.3,5.3,0,0,1-5.22-5.33V393.82a5.3,5.3,0,0,1,5.22-5.33h10.43a5.3,5.3,0,0,1,5.22,5.33v26.54h11.91c6.46,0,11.11-3.28,15.54-11.23l8.62-15.31c2-3.63,5.1-5.33,7.94-5.33h12.81c2.84,0,3.41,2.27,1.7,5.33L401,415.6c-2.83,5.1-6.58,10.44-14.29,12.25,5.44,1.13,11.12,8,14.29,12.93l13.84,22c1.81,3,1,5.22-1.93,5.22h-12.7c-2.84,0-6.69-2.27-8.51-5.22l-9.75-15.42c-4.2-6.69-8.4-11.34-15.54-11.34H354.45V462.9a5.18,5.18,0,0,1-5.22,5.1Z"/><path class="cls-3" d="M431.12,410.16c4.65-17.58,20.64-21.55,36.74-21.55h29.83a4.94,4.94,0,0,1,4.77,5.1V462.9a5.18,5.18,0,0,1-5.22,5.1H486.81a5.14,5.14,0,0,1-5.22-5.22V448.83H442.23l-3.74,13.95a7.13,7.13,0,0,1-6.58,5.22H421a3.78,3.78,0,0,1-3.85-5.1Zm15.19,23h35.28V404.26H465.82a14.65,14.65,0,0,0-14.63,11.11Z"/><path class="cls-3" d="M565.74,388.61c21.1,0,33.46,9.52,33.46,30.85s-12.36,30.85-33.46,30.85H539.2v12.47A5.2,5.2,0,0,1,534,468H523.55a5.28,5.28,0,0,1-5.22-5.22v-69a5.1,5.1,0,0,1,5.11-5.21ZM539.2,404.26v30.4h20.19c10.89,0,18.94-2.27,18.94-15.2s-8.05-15.2-18.94-15.2Z"/></g></g></svg>