<svg xmlns="http://www.w3.org/2000/svg" xmlns:xlink="http://www.w3.org/1999/xlink" viewBox="0 0 967.11 249"><defs><style>.cls-1{fill:#fff;}.cls-2{fill:url(#Безымянный_градиент_4);}.cls-3{fill:#fcb20d;}</style><linearGradient id="Безымянный_градиент_4" x1="172.81" y1="-12.1" x2="172.68" y2="333.45" gradientUnits="userSpaceOnUse"><stop offset="0" stop-color="#fff76a"/><stop offset="1" stop-color="#e9a900"/></linearGradient></defs><title>logo-new</title><g id="Слой_2" data-name="Слой 2"><g id="Слой_1-2" data-name="Слой 1"><path class="cls-1" d="M178.22,128.41s-1.52-1.83-1.52-3,8.13-2.74,10.27-2.74,2.95,3.56,1.52,5.59S178.22,128.41,178.22,128.41Z"/><path class="cls-1" d="M68,156.79l-22.19-1.62c.37,1.89,1.09,5.5,1.58,7.13.67,2.25.9,4.06,4.5,5.18a155,155,0,0,0,15.9,3.28,24.84,24.84,0,0,1,.21-14Z"/><path class="cls-1" d="M284.76,162.69c0,.5.08,1,.08,1.5a25,25,0,0,1-1.33,8c5.37,0,8.6,0,9-.07,3.16-.32,5.64-1.49,6.31-4.87.18-.88.46-2.55.75-4.57Z"/><path class="cls-1" d="M284.44,159.86h15.48c.67-5.47,1.13-12,0-14-1.8-3.16-15.33-9-26.83-12.85s-36.52-5.36-56.81-5.41c-1.5,0-34.38-16.13-50.91-18.46A176.87,176.87,0,0,0,143,107.74c-40.58.23-75.52,16-75.52,16s-14-.9-15.78-.9-3.83,0-3.83,1.57A71.63,71.63,0,0,0,49,131.64c-1.35,2.25-4,6.08-4,8.34,0,1.73.39,9,.58,12.33L69.09,154a25.08,25.08,0,0,1,48,10.16,25.41,25.41,0,0,1-1.21,7.69c33.49.09,82.29.23,120.12.29a25.06,25.06,0,1,1,48.44-12.31Zm-2-19.89s12.13,4.66,13.4,6.3.5,6.58.5,6.58-6.07-.13-8.34-.89-5.82-12-5.82-12ZM58.79,141.53c-1,.66-10.84-.88-10.84-.88.47-3,4.51-8,4.51-8S65,134.73,65.4,135.3,59.83,140.87,58.79,141.53Zm104.41-29c9.5.54,39.77,15.28,39.77,15.28s-41.07.6-59.9.82l-9.23-16.21A238.45,238.45,0,0,1,163.2,112.55Zm-52.39,11.2c-2.53-1.26-4.34-4.11-5-5.21,6.18-2.92,14.34-5,25.29-5.9l9.13,16c-2.9,0-5,0-5.9,0C128,128.73,114,125.34,110.81,123.75Zm117.78,21c-1.1,2.67-6,13.84-7.43,15.65a7.61,7.61,0,0,1-6,2.7L126.46,163s82.83-2.2,86-2.6,5-2.41,6.82-5.22a41,41,0,0,0,4.21-9.22c.6-2.21.24-3.2-2.37-3.6s-42.76-4.23-42.76-4.23,41.12.81,45.33,1.21S230.06,141.23,228.59,144.78Z"/><path class="cls-1" d="M91.93,142.34a19.46,19.46,0,1,0,19.46,19.46A19.46,19.46,0,0,0,91.93,142.34Zm0,30.9a11.44,11.44,0,1,1,11.44-11.44A11.44,11.44,0,0,1,91.93,173.24Z"/><path class="cls-1" d="M91.93,156.36a5.44,5.44,0,1,0,5.44,5.44A5.43,5.43,0,0,0,91.93,156.36Zm0,8.76a3.32,3.32,0,1,1,3.32-3.32A3.32,3.32,0,0,1,91.93,165.12Z"/><rect class="cls-1" x="91.08" y="146.63" width="1.7" height="11.64"/><rect class="cls-1" x="91.08" y="165.33" width="1.7" height="11.64"/><rect class="cls-1" x="76.76" y="160.95" width="11.64" height="1.7"/><rect class="cls-1" x="95.46" y="160.95" width="11.64" height="1.7"/><rect class="cls-1" x="84.47" y="149.37" width="1.7" height="11.64" transform="translate(-84.75 105.78) rotate(-45)"/><rect class="cls-1" x="97.69" y="162.59" width="1.7" height="11.64" transform="translate(-90.23 119.03) rotate(-45.01)"/><rect class="cls-1" x="79.5" y="167.56" width="11.64" height="1.7" transform="translate(-94.1 109.67) rotate(-45)"/><rect class="cls-1" x="92.72" y="154.34" width="11.64" height="1.7" transform="translate(-80.87 115.12) rotate(-45)"/><path class="cls-1" d="M259.76,142.34a19.46,19.46,0,1,0,19.47,19.46A19.46,19.46,0,0,0,259.76,142.34Zm0,30.9A11.44,11.44,0,1,1,271.2,161.8,11.44,11.44,0,0,1,259.76,173.24Z"/><path class="cls-1" d="M259.76,156.36a5.44,5.44,0,1,0,5.44,5.44A5.44,5.44,0,0,0,259.76,156.36Zm0,8.76a3.32,3.32,0,1,1,3.33-3.32A3.32,3.32,0,0,1,259.76,165.12Z"/><rect class="cls-1" x="258.91" y="146.63" width="1.7" height="11.64"/><rect class="cls-1" x="258.91" y="165.33" width="1.7" height="11.64"/><rect class="cls-1" x="244.59" y="160.95" width="11.64" height="1.7"/><rect class="cls-1" x="263.29" y="160.95" width="11.64" height="1.7"/><rect class="cls-1" x="252.3" y="149.37" width="1.7" height="11.64" transform="translate(-35.58 224.48) rotate(-45)"/><rect class="cls-1" x="265.52" y="162.59" width="1.7" height="11.64" transform="translate(-41.06 237.7) rotate(-45)"/><rect class="cls-1" x="247.33" y="167.56" width="11.64" height="1.7" transform="translate(-44.94 228.33) rotate(-45)"/><rect class="cls-1" x="260.55" y="154.34" width="11.64" height="1.7" transform="translate(-31.72 233.81) rotate(-45)"/><path class="cls-2" d="M51.57,249Q22,176,22.82,79.73A384.77,384.77,0,0,0,94.64,60.55c23.87-8.77,50-20.81,78.14-36.11,28.16,15.3,54.07,27.34,77.94,36.11a386.71,386.71,0,0,0,72,19.18q.83,96.65-28.62,169.27l24.21-8c19.57-51.78,28.56-103.55,27.06-171.27a11.25,11.25,0,0,0-9.59-11A364.2,364.2,0,0,1,259.9,40c-24.73-9.06-52.1-21.71-81.61-38.36a10.34,10.34,0,0,0-11,0C138,18.24,110.79,30.85,85.87,40a368.24,368.24,0,0,1-75.7,18.77c-5.51.76-9.38,5.51-10,11C-1.41,137.46,7.64,189.23,27.24,241Z"/><path class="cls-3" d="M446.09,174.25H435.54a5.2,5.2,0,0,1-5.22-5.21V110.51h-13.5a14.65,14.65,0,0,0-14.63,11.12L389.49,169a7.11,7.11,0,0,1-6.58,5.21H371.68a3.63,3.63,0,0,1-3.63-4.65l14.07-53.19c4.65-17.58,20.64-21.55,36.75-21.55h27.67c2.61,0,4.65,2.5,4.65,5.22v69A5.1,5.1,0,0,1,446.09,174.25Z"/><path class="cls-3" d="M532.85,174.25a5.27,5.27,0,0,1-5.22-5.21V117.66L498.71,169c-1.59,2.83-5.11,5.21-8.06,5.21H472.28a5.2,5.2,0,0,1-5.22-5.21v-69a5.14,5.14,0,0,1,5.22-5.22H482a5.18,5.18,0,0,1,5.22,5.1v55.47l31.53-55.35c1.59-2.72,4.88-5.22,7.6-5.22h16.34a5.18,5.18,0,0,1,5.1,5.22v69a5.27,5.27,0,0,1-5.22,5.21Z"/><path class="cls-3" d="M630.27,174.25a5.27,5.27,0,0,1-5.22-5.21V110.51H584.56V169a5.27,5.27,0,0,1-5.22,5.21H568.91a5.2,5.2,0,0,1-5.22-5.21v-69a5.11,5.11,0,0,1,5.11-5.22h71.9a5.2,5.2,0,0,1,5.22,5.22v69a5.3,5.3,0,0,1-5.33,5.21Z"/><path class="cls-3" d="M706.71,174.25a5.3,5.3,0,0,1-5.22-5.33V100.08a5.3,5.3,0,0,1,5.22-5.33h10.43a5.3,5.3,0,0,1,5.22,5.33v26.54h11.91c6.46,0,11.11-3.29,15.53-11.23l8.63-15.31c2-3.63,5.1-5.33,7.94-5.33h12.81c2.84,0,3.4,2.26,1.7,5.33l-12,21.77c-2.83,5.11-6.58,10.44-14.29,12.25,5.44,1.14,11.11,8.06,14.29,12.93l13.84,22c1.81,3,1,5.21-1.93,5.21h-12.7c-2.84,0-6.7-2.26-8.51-5.21l-9.76-15.43c-4.19-6.69-8.39-11.34-15.53-11.34H722.36v26.88a5.17,5.17,0,0,1-5.22,5.1Z"/><path class="cls-3" d="M799,116.41c4.64-17.58,20.64-21.55,36.74-21.55H865.6a4.94,4.94,0,0,1,4.77,5.1v69.19a5.17,5.17,0,0,1-5.22,5.1H854.71A5.13,5.13,0,0,1,849.5,169V155.09H810.14L806.4,169a7.12,7.12,0,0,1-6.58,5.21H788.93a3.78,3.78,0,0,1-3.86-5.1Zm15.19,23H849.5V110.51H833.73a14.65,14.65,0,0,0-14.63,11.12Z"/><path class="cls-3" d="M933.65,94.86c21.1,0,33.46,9.53,33.46,30.85s-12.36,30.85-33.46,30.85H907.11V169a5.2,5.2,0,0,1-5.22,5.21H891.46a5.27,5.27,0,0,1-5.22-5.21v-69a5.11,5.11,0,0,1,5.1-5.22Zm-26.54,15.65v30.4H927.3c10.89,0,18.94-2.27,18.94-15.2s-8-15.2-18.94-15.2Z"/></g></g></svg>