<svg xmlns="http://www.w3.org/2000/svg" xmlns:xlink="http://www.w3.org/1999/xlink" viewBox="0 0 1050.9 249"><defs><style>.cls-1{fill:#fff;}.cls-2{fill:url(#Безымянный_градиент_4);}.cls-3{fill:#fcb20d;}</style><linearGradient id="Безымянный_градиент_4" x1="172.81" y1="-12.1" x2="172.68" y2="333.45" gradientUnits="userSpaceOnUse"><stop offset="0" stop-color="#fff76a"/><stop offset="1" stop-color="#e9a900"/></linearGradient></defs><title>Logo3</title><g id="Слой_2" data-name="Слой 2"><g id="Слой_1-2" data-name="Слой 1"><path class="cls-1" d="M178.22,128.41s-1.52-1.83-1.52-3,8.13-2.74,10.27-2.74,2.95,3.56,1.52,5.59S178.22,128.41,178.22,128.41Z"/><path class="cls-1" d="M68,156.79l-22.19-1.62c.37,1.89,1.09,5.5,1.58,7.13.67,2.25.9,4.06,4.5,5.18a155,155,0,0,0,15.9,3.28,24.84,24.84,0,0,1,.21-14Z"/><path class="cls-1" d="M284.76,162.69c0,.5.08,1,.08,1.5a25,25,0,0,1-1.33,8c5.37,0,8.6,0,9-.07,3.16-.32,5.64-1.49,6.31-4.87.18-.88.46-2.55.75-4.57Z"/><path class="cls-1" d="M284.44,159.86h15.48c.67-5.47,1.13-12,0-14-1.8-3.16-15.33-9-26.83-12.85s-36.52-5.36-56.81-5.41c-1.5,0-34.38-16.13-50.91-18.46A176.87,176.87,0,0,0,143,107.74c-40.58.23-75.52,16-75.52,16s-14-.9-15.78-.9-3.83,0-3.83,1.57A71.63,71.63,0,0,0,49,131.64c-1.35,2.25-4,6.08-4,8.34,0,1.73.39,9,.58,12.33L69.09,154a25.08,25.08,0,0,1,48,10.16,25.41,25.41,0,0,1-1.21,7.69c33.49.09,82.29.23,120.12.29a25.06,25.06,0,1,1,48.44-12.31Zm-2-19.89s12.13,4.66,13.4,6.3.5,6.58.5,6.58-6.07-.13-8.34-.89-5.82-12-5.82-12ZM58.79,141.53c-1,.66-10.84-.88-10.84-.88.47-3,4.51-8,4.51-8S65,134.73,65.4,135.3,59.83,140.87,58.79,141.53Zm104.41-29c9.5.54,39.77,15.28,39.77,15.28s-41.07.6-59.9.82l-9.23-16.21A238.45,238.45,0,0,1,163.2,112.55Zm-52.39,11.2c-2.53-1.26-4.34-4.11-5-5.21,6.18-2.92,14.34-5,25.29-5.9l9.13,16c-2.9,0-5,0-5.9,0C128,128.73,114,125.34,110.81,123.75Zm117.78,21c-1.1,2.67-6,13.84-7.43,15.65a7.61,7.61,0,0,1-6,2.7L126.46,163s82.83-2.2,86-2.6,5-2.41,6.82-5.22a41,41,0,0,0,4.21-9.22c.6-2.21.24-3.2-2.37-3.6s-42.76-4.23-42.76-4.23,41.12.81,45.33,1.21S230.06,141.23,228.59,144.78Z"/><path class="cls-1" d="M91.93,142.34a19.46,19.46,0,1,0,19.46,19.46A19.46,19.46,0,0,0,91.93,142.34Zm0,30.9a11.44,11.44,0,1,1,11.44-11.44A11.44,11.44,0,0,1,91.93,173.24Z"/><path class="cls-1" d="M91.93,156.36a5.44,5.44,0,1,0,5.44,5.44A5.43,5.43,0,0,0,91.93,156.36Zm0,8.76a3.32,3.32,0,1,1,3.32-3.32A3.32,3.32,0,0,1,91.93,165.12Z"/><rect class="cls-1" x="91.08" y="146.63" width="1.7" height="11.64"/><rect class="cls-1" x="91.08" y="165.33" width="1.7" height="11.64"/><rect class="cls-1" x="76.76" y="160.95" width="11.64" height="1.7"/><rect class="cls-1" x="95.46" y="160.95" width="11.64" height="1.7"/><rect class="cls-1" x="84.47" y="149.37" width="1.7" height="11.64" transform="translate(-84.75 105.78) rotate(-45)"/><rect class="cls-1" x="97.69" y="162.59" width="1.7" height="11.64" transform="translate(-90.23 119.03) rotate(-45.01)"/><rect class="cls-1" x="79.5" y="167.56" width="11.64" height="1.7" transform="translate(-94.1 109.67) rotate(-45)"/><rect class="cls-1" x="92.72" y="154.34" width="11.64" height="1.7" transform="translate(-80.87 115.12) rotate(-45)"/><path class="cls-1" d="M259.76,142.34a19.46,19.46,0,1,0,19.47,19.46A19.46,19.46,0,0,0,259.76,142.34Zm0,30.9A11.44,11.44,0,1,1,271.2,161.8,11.44,11.44,0,0,1,259.76,173.24Z"/><path class="cls-1" d="M259.76,156.36a5.44,5.44,0,1,0,5.44,5.44A5.44,5.44,0,0,0,259.76,156.36Zm0,8.76a3.32,3.32,0,1,1,3.33-3.32A3.32,3.32,0,0,1,259.76,165.12Z"/><rect class="cls-1" x="258.91" y="146.63" width="1.7" height="11.64"/><rect class="cls-1" x="258.91" y="165.33" width="1.7" height="11.64"/><rect class="cls-1" x="244.59" y="160.95" width="11.64" height="1.7"/><rect class="cls-1" x="263.29" y="160.95" width="11.64" height="1.7"/><rect class="cls-1" x="252.3" y="149.37" width="1.7" height="11.64" transform="translate(-35.58 224.48) rotate(-45)"/><rect class="cls-1" x="265.52" y="162.59" width="1.7" height="11.64" transform="translate(-41.06 237.7) rotate(-45)"/><rect class="cls-1" x="247.33" y="167.56" width="11.64" height="1.7" transform="translate(-44.94 228.33) rotate(-45)"/><rect class="cls-1" x="260.55" y="154.34" width="11.64" height="1.7" transform="translate(-31.72 233.81) rotate(-45)"/><path class="cls-2" d="M51.57,249Q22,176,22.82,79.73A384.77,384.77,0,0,0,94.64,60.55c23.87-8.77,50-20.81,78.14-36.11,28.16,15.3,54.07,27.34,77.94,36.11a386.71,386.71,0,0,0,72,19.18q.83,96.65-28.62,169.27l24.21-8c19.57-51.78,28.56-103.55,27.06-171.27a11.25,11.25,0,0,0-9.59-11A364.2,364.2,0,0,1,259.9,40c-24.73-9.06-52.1-21.71-81.61-38.36a10.34,10.34,0,0,0-11,0C138,18.24,110.79,30.85,85.87,40a368.24,368.24,0,0,1-75.7,18.77c-5.51.76-9.38,5.51-10,11C-1.41,137.46,7.64,189.23,27.24,241Z"/><path class="cls-3" d="M457,149.25H445a5.92,5.92,0,0,1-5.95-5.94V76.6H423.66A16.68,16.68,0,0,0,407,89.27l-14.48,54a8.12,8.12,0,0,1-7.5,5.94h-12.8a4.14,4.14,0,0,1-4.14-5.3l16-60.63c5.3-20,23.53-24.56,41.89-24.56h31.55c3,0,5.3,2.84,5.3,5.94v78.61A5.82,5.82,0,0,1,457,149.25Z"/><path class="cls-3" d="M555.91,149.25a6,6,0,0,1-5.95-5.94V84.74l-33,58.57c-1.81,3.23-5.82,5.94-9.18,5.94H486.87a5.92,5.92,0,0,1-5.94-5.94V64.7a5.84,5.84,0,0,1,5.94-5.94H498a5.91,5.91,0,0,1,5.95,5.82v63.21L539.88,64.7c1.81-3.1,5.56-5.94,8.66-5.94h18.62A5.9,5.9,0,0,1,573,64.7v78.61a6,6,0,0,1-6,5.94Z"/><path class="cls-3" d="M667,149.25a6,6,0,0,1-6-5.94V76.6H614.86v66.71a6,6,0,0,1-6,5.94H597a5.92,5.92,0,0,1-5.94-5.94V64.7a5.81,5.81,0,0,1,5.82-5.94h82a5.93,5.93,0,0,1,5.95,5.94v78.61a6,6,0,0,1-6.08,5.94Z"/><path class="cls-3" d="M754.08,149.25a6,6,0,0,1-6-6.07V64.7a6,6,0,0,1,6-6.07H766a6,6,0,0,1,5.95,6.07V95H785.5c7.36,0,12.67-3.75,17.71-12.8L813,64.7c2.33-4.13,5.82-6.07,9.05-6.07h14.61c3.23,0,3.88,2.58,1.94,6.07l-13.7,24.83c-3.24,5.81-7.5,11.89-16.29,14,6.2,1.29,12.67,9.18,16.29,14.74l15.77,25.08c2.07,3.36,1.16,5.94-2.2,5.94H824c-3.23,0-7.63-2.58-9.7-5.94l-11.11-17.58c-4.79-7.63-9.57-12.93-17.71-12.93H771.92v30.64a5.9,5.9,0,0,1-5.95,5.81Z"/><path class="cls-3" d="M859.31,83.32c5.3-20,23.53-24.56,41.89-24.56h34a5.63,5.63,0,0,1,5.43,5.82v78.86a5.9,5.9,0,0,1-6,5.81H922.79a5.84,5.84,0,0,1-5.95-5.94v-15.9H872l-4.27,15.9a8.11,8.11,0,0,1-7.5,5.94H847.8a4.31,4.31,0,0,1-4.39-5.81Zm17.32,26.25h40.21v-33h-18a16.68,16.68,0,0,0-16.68,12.67Z"/><path class="cls-3" d="M1012.76,58.76c24,0,38.14,10.86,38.14,35.16s-14.1,35.17-38.14,35.17H982.51v14.22a5.93,5.93,0,0,1-6,5.94H964.67a6,6,0,0,1-5.95-5.94V64.7a5.81,5.81,0,0,1,5.82-5.94ZM982.51,76.6v34.65h23c12.41,0,21.59-2.59,21.59-17.33s-9.18-17.32-21.59-17.32Z"/><path class="cls-1" d="M402,176.17v30.31h-4.33V193H380.28v13.51H376V176.17h4.33v13h17.41v-13Z"/><path class="cls-1" d="M433.76,198.9H417.65l-3.34,7.58h-4.46l13.73-30.31h4.29l13.77,30.31h-4.55Zm-1.52-3.46-6.54-14.85-6.54,14.85Z"/><path class="cls-1" d="M469.07,204.82a14.87,14.87,0,0,1-5.74-5.55,16.21,16.21,0,0,1,0-15.89,14.83,14.83,0,0,1,5.76-5.54,17.94,17.94,0,0,1,14.72-.82,13.33,13.33,0,0,1,5,3.52L486,183.27a11.3,11.3,0,0,0-8.53-3.59,12.32,12.32,0,0,0-6.1,1.51,11.14,11.14,0,0,0-4.27,4.18,12.28,12.28,0,0,0,0,11.91,11,11,0,0,0,4.27,4.18,12.32,12.32,0,0,0,6.1,1.52,11.33,11.33,0,0,0,8.53-3.64l2.82,2.73a13.62,13.62,0,0,1-5,3.55,17.22,17.22,0,0,1-6.51,1.21A16.75,16.75,0,0,1,469.07,204.82Z"/><path class="cls-1" d="M517.89,179.94H507.5v26.54h-4.24V179.94H492.91v-3.77h25Z"/><path class="cls-1" d="M546.86,179a10.57,10.57,0,0,1,0,15.5q-3.37,2.81-9.27,2.81H530.1v9.18h-4.33V176.17h11.82Q543.48,176.17,546.86,179Zm-3.12,12.79a6.95,6.95,0,0,0,0-10.09q-2.16-1.75-6.28-1.75H530.1v13.6h7.36Q541.59,193.54,543.74,191.78Z"/><path class="cls-1" d="M577,198.9H560.93l-3.33,7.58h-4.46l13.73-30.31h4.28l13.77,30.31h-4.54Zm-1.51-3.46L569,180.59l-6.54,14.85Z"/><path class="cls-1" d="M616.79,193.15H611v13.33h-4.24V193.15H601l-8.49,13.33h-5.07l10-15.76-9.27-14.55h4.63l8.1,13.16h5.89V176.17H611v13.16h5.81L625,176.17h4.63l-9.27,14.64,10,15.67h-5.07Z"/><path class="cls-1" d="M659.49,202.72v3.76h-22V176.17h21.39v3.77H641.82v9.31H657v3.68h-15.2v9.79Z"/><path class="cls-1" d="M706.67,193.38a7.29,7.29,0,0,1,1.58,4.83,7.21,7.21,0,0,1-2.88,6.11c-1.92,1.44-4.72,2.16-8.38,2.16H683.13V176.17h13c3.32,0,5.92.67,7.78,2a6.71,6.71,0,0,1,2.79,5.79,7.09,7.09,0,0,1-1.23,4.2,7.43,7.43,0,0,1-3.49,2.59A8.48,8.48,0,0,1,706.67,193.38Zm-19.25-3.87h8.44a7.9,7.9,0,0,0,4.83-1.26,4.31,4.31,0,0,0,1.67-3.68,4.38,4.38,0,0,0-1.69-3.7,7.87,7.87,0,0,0-4.81-1.28h-8.44Zm16.45,8.36a4.37,4.37,0,0,0-1.75-3.84,9.1,9.1,0,0,0-5.22-1.23h-9.48v10.26h9.48Q703.88,203.06,703.87,197.87Z"/><path class="cls-1" d="M737.78,198.9H721.67l-3.34,7.58h-4.46l13.73-30.31h4.29l13.77,30.31h-4.55Zm-1.52-3.46-6.54-14.85-6.54,14.85Z"/><path class="cls-1" d="M791.47,176.17v30.31h-38V176.17h4.28v26.55h12.6V176.17h4.25v26.55h12.6V176.17Z"/><path class="cls-1" d="M825.51,202.72v3.76h-22V176.17H824.9v3.77H807.84v9.31H823v3.68h-15.2v9.79Z"/><path class="cls-1" d="M854.73,179.94H839.15l0,26.54H834.9V176.17h19.88Z"/><path class="cls-1" d="M864.09,204.82a14.89,14.89,0,0,1-5.78-5.57,16,16,0,0,1,0-15.85,14.86,14.86,0,0,1,5.78-5.56,17.84,17.84,0,0,1,16.49,0,14.69,14.69,0,0,1,5.76,5.54,16.21,16.21,0,0,1,0,15.89,14.72,14.72,0,0,1-5.76,5.55,17.92,17.92,0,0,1-16.49,0Zm14.27-3.36a11.16,11.16,0,0,0,4.2-4.18,12.35,12.35,0,0,0,0-11.91,11.31,11.31,0,0,0-4.2-4.18,11.94,11.94,0,0,0-6-1.51,12.12,12.12,0,0,0-6,1.51,11.15,11.15,0,0,0-4.25,4.18,12.35,12.35,0,0,0,0,11.91,11,11,0,0,0,4.25,4.18,12.12,12.12,0,0,0,6,1.52A12,12,0,0,0,878.36,201.46Z"/><path class="cls-1" d="M932,198.9h-16.1l-3.34,7.58h-4.46l13.73-30.31h4.29l13.77,30.31h-4.55Zm-1.51-3.46-6.54-14.85-6.54,14.85Z"/><path class="cls-1" d="M971.24,193.38a7.29,7.29,0,0,1,1.58,4.83,7.21,7.21,0,0,1-2.88,6.11c-1.92,1.44-4.72,2.16-8.38,2.16H947.7V176.17h13q5,0,7.77,2A6.71,6.71,0,0,1,971.3,184a7.09,7.09,0,0,1-1.23,4.2,7.43,7.43,0,0,1-3.49,2.59A8.48,8.48,0,0,1,971.24,193.38ZM952,189.51h8.44a7.9,7.9,0,0,0,4.83-1.26,4.89,4.89,0,0,0,0-7.38,7.87,7.87,0,0,0-4.81-1.28H952Zm16.45,8.36a4.37,4.37,0,0,0-1.75-3.84,9.1,9.1,0,0,0-5.22-1.23H952v10.26h9.48Q968.45,203.06,968.44,197.87Z"/><path class="cls-1" d="M1003,179.94H992.65v26.54h-4.24V179.94H978.06v-3.77h25Z"/><path class="cls-1" d="M1015.86,204.82a15,15,0,0,1-5.78-5.57,16,16,0,0,1,0-15.85,14.93,14.93,0,0,1,5.78-5.56,17.86,17.86,0,0,1,16.5,0,14.83,14.83,0,0,1,5.76,5.54,16.21,16.21,0,0,1,0,15.89,14.85,14.85,0,0,1-5.76,5.55,17.94,17.94,0,0,1-16.5,0Zm14.27-3.36a11.16,11.16,0,0,0,4.2-4.18,12.28,12.28,0,0,0,0-11.91,11.31,11.31,0,0,0-4.2-4.18,11.94,11.94,0,0,0-6-1.51,12.14,12.14,0,0,0-6,1.51,11.06,11.06,0,0,0-4.24,4.18,12.28,12.28,0,0,0,0,11.91,10.92,10.92,0,0,0,4.24,4.18,12.15,12.15,0,0,0,6,1.52A12,12,0,0,0,1030.13,201.46Z"/></g></g></svg>