<svg xmlns="http://www.w3.org/2000/svg" width="40.031" height="40" viewBox="0 0 40.031 40">
  <metadata><?xpacket begin="﻿" id="W5M0MpCehiHzreSzNTczkc9d"?>
<x:xmpmeta xmlns:x="adobe:ns:meta/" x:xmptk="Adobe XMP Core 5.6-c142 79.160924, 2017/07/13-01:06:39        ">
   <rdf:RDF xmlns:rdf="http://www.w3.org/1999/02/22-rdf-syntax-ns#">
      <rdf:Description rdf:about=""/>
   </rdf:RDF>
</x:xmpmeta>
                                                                                                    
                                                                                                    
                                                                                                    
                                                                                                    
                                                                                                    
                                                                                                    
                                                                                                    
                                                                                                    
                                                                                                    
                                                                                                    
                                                                                                    
                                                                                                    
                                                                                                    
                                                                                                    
                                                                                                    
                                                                                                    
                                                                                                    
                                                                                                    
                                                                                                    
                                                                                                    
                           
<?xpacket end="w"?></metadata>
<defs>
    <style>
      .cls-1 {
        fill: #ffcb69;
        fill-rule: evenodd;
      }
    </style>
  </defs>
  <path id="Forma_1" data-name="Forma 1" class="cls-1" d="M856.592,8560.05h-4.928a2.744,2.744,0,0,0-1.972-1.97v-6.98a0.69,0.69,0,1,0-1.38,0v6.98a2.749,2.749,0,1,0,3.352,3.34h4.928a0.691,0.691,0,0,0,.69-0.69A0.682,0.682,0,0,0,856.592,8560.05Zm-7.59,2.06a1.375,1.375,0,1,1,1.38-1.38A1.382,1.382,0,0,1,849,8562.11Zm14.568-15.41,2.826,2.82a0.7,0.7,0,0,0,.976,0,5.595,5.595,0,1,0-7.925-7.9,0.681,0.681,0,0,0,0,.97l3.147,3.14-1.172,1.17a18.64,18.64,0,0,0-24.839,0l-1.173-1.17,3.147-3.14a0.683,0.683,0,0,0,0-.97,5.595,5.595,0,1,0-7.925,7.9,0.7,0.7,0,0,0,.976,0l2.826-2.82,1.157,1.16a18.513,18.513,0,0,0,3.972,28.88l-2.09,2.08a0.694,0.694,0,0,0,0,.98,0.7,0.7,0,0,0,.976,0l2.381-2.38a18.612,18.612,0,0,0,16.344,0l2.38,2.38a0.7,0.7,0,0,0,.976,0,0.694,0.694,0,0,0,0-.98l-2.089-2.08a18.513,18.513,0,0,0,3.971-28.88Zm2.825-4.11a4.21,4.21,0,0,1,.448,5.43l-5.893-5.87A4.244,4.244,0,0,1,866.4,8542.59Zm-35.235,5.43a4.215,4.215,0,0,1,5.894-5.87ZM849,8577.93a17.2,17.2,0,1,1,17.25-17.2A17.241,17.241,0,0,1,849,8577.93Zm13.719-25.14a16.044,16.044,0,0,0-5.754-5.74c-0.011,0-.018-0.02-0.029-0.02a0.056,0.056,0,0,0-.038-0.01,15.835,15.835,0,0,0-15.795,0,0.054,0.054,0,0,0-.038.01c-0.012,0-.018.02-0.03,0.02a16.042,16.042,0,0,0-5.753,5.74,0.348,0.348,0,0,0-.026.03c-0.007.01-.007,0.03-0.013,0.04a15.731,15.731,0,0,0,0,15.75,0.268,0.268,0,0,1,.013.04c0.009,0.01.024,0.03,0.035,0.04a15.931,15.931,0,0,0,5.744,5.72c0.011,0.01.018,0.02,0.03,0.03s0.037,0.01.055,0.02a15.834,15.834,0,0,0,15.76,0c0.018-.01.038-0.01,0.056-0.02s0.018-.02.029-0.03a15.926,15.926,0,0,0,5.745-5.72c0.011-.01.025-0.03,0.035-0.04s0.007-.03.012-0.04a15.725,15.725,0,0,0,0-15.75c-0.006-.01,0-0.03-0.012-0.04S862.728,8552.8,862.721,8552.79Zm-5.892,20.09-0.329-.57a0.688,0.688,0,1,0-1.2.68l0.331,0.58a14.5,14.5,0,0,1-5.943,1.58v-0.66a0.69,0.69,0,0,0-1.38,0v0.66a14.5,14.5,0,0,1-5.942-1.58l0.33-.58a0.69,0.69,0,0,0-.252-0.94,0.7,0.7,0,0,0-.943.26l-0.329.57a14.642,14.642,0,0,1-4.349-4.34l0.57-.33a0.688,0.688,0,1,0-.69-1.19l-0.572.33a14.314,14.314,0,0,1-1.588-5.93H835.2a0.691,0.691,0,0,0,.69-0.69,0.682,0.682,0,0,0-.69-0.68h-0.656a14.328,14.328,0,0,1,1.587-5.93l0.572,0.33a0.716,0.716,0,0,0,.345.09,0.685,0.685,0,0,0,.345-1.28l-0.57-.33a14.542,14.542,0,0,1,4.35-4.34l0.329,0.57a0.687,0.687,0,0,0,.6.34,0.713,0.713,0,0,0,.344-0.09,0.688,0.688,0,0,0,.253-0.94l-0.331-.57a14.5,14.5,0,0,1,5.943-1.58v0.65a0.69,0.69,0,0,0,1.38,0v-0.65a14.506,14.506,0,0,1,5.943,1.58l-0.331.57a0.687,0.687,0,0,0,.252.94,0.719,0.719,0,0,0,.345.09,0.687,0.687,0,0,0,.6-0.34l0.329-.57a14.515,14.515,0,0,1,4.349,4.34l-0.569.33a0.685,0.685,0,0,0,.345,1.28,0.716,0.716,0,0,0,.345-0.09l0.572-.33a14.324,14.324,0,0,1,1.587,5.92H862.8a0.69,0.69,0,1,0,0,1.38h0.655a14.328,14.328,0,0,1-1.587,5.93l-0.572-.33a0.688,0.688,0,1,0-.69,1.19l0.569,0.33A14.73,14.73,0,0,1,856.829,8572.88Z" transform="translate(-829 -8540)"/>
</svg>
