<svg xmlns="http://www.w3.org/2000/svg" width="31" height="38" viewBox="0 0 31 38">
  <metadata><?xpacket begin="﻿" id="W5M0MpCehiHzreSzNTczkc9d"?>
<x:xmpmeta xmlns:x="adobe:ns:meta/" x:xmptk="Adobe XMP Core 5.6-c142 79.160924, 2017/07/13-01:06:39        ">
   <rdf:RDF xmlns:rdf="http://www.w3.org/1999/02/22-rdf-syntax-ns#">
      <rdf:Description rdf:about=""/>
   </rdf:RDF>
</x:xmpmeta>
                                                                                                    
                                                                                                    
                                                                                                    
                                                                                                    
                                                                                                    
                                                                                                    
                                                                                                    
                                                                                                    
                                                                                                    
                                                                                                    
                                                                                                    
                                                                                                    
                                                                                                    
                                                                                                    
                                                                                                    
                                                                                                    
                                                                                                    
                                                                                                    
                                                                                                    
                                                                                                    
                           
<?xpacket end="w"?></metadata>
<defs>
    <style>
      .cls-1 {
        fill: #ffcb69;
        fill-rule: evenodd;
      }
    </style>
  </defs>
  <path id="Forma_1" data-name="Forma 1" class="cls-1" d="M1191.6,8542a3.137,3.137,0,0,0-3.1,3.17v16.62a0.775,0.775,0,1,0,1.55,0v-16.62a1.551,1.551,0,1,1,3.1,0v16.62a0.775,0.775,0,1,0,1.55,0v-16.62A3.137,3.137,0,0,0,1191.6,8542Zm4.65,3.17a3.135,3.135,0,0,0-3.1,3.16,0.775,0.775,0,1,0,1.55,0,1.55,1.55,0,1,1,3.1,0v13.46a0.775,0.775,0,1,0,1.55,0v-13.46A3.135,3.135,0,0,0,1196.25,8545.17Zm4.65,4.75a3.135,3.135,0,0,0-3.1,3.16,0.775,0.775,0,1,0,1.55,0,1.55,1.55,0,1,1,3.1,0v16.63a8.627,8.627,0,0,1-8.52,8.71h-4.47a10.354,10.354,0,0,1-8.83-5.33l-5.91-9.78a1.665,1.665,0,0,1-.17-0.73,1.571,1.571,0,0,1,2.86-.87l3.93,3.83a2.282,2.282,0,0,0,2.56.64,2.36,2.36,0,0,0,1.5-2.22v-15.63a1.55,1.55,0,1,1,3.1,0,0.775,0.775,0,1,0,1.55,0,3.1,3.1,0,1,0-6.2,0v15.63a0.757,0.757,0,0,1-.5.74,0.768,0.768,0,0,1-.9-0.26l-3.89-3.78a3.05,3.05,0,0,0-2.46-1.24,3.135,3.135,0,0,0-3.1,3.16,3.191,3.191,0,0,0,.38,1.51l5.93,9.83a11.883,11.883,0,0,0,10.15,6.08h4.46a10.2,10.2,0,0,0,10.08-10.29v-16.63A3.135,3.135,0,0,0,1200.9,8549.92Z" transform="translate(-1173 -8542)"/>
</svg>
