<svg xmlns="http://www.w3.org/2000/svg" width="38" height="38" viewBox="0 0 38 38">
  <metadata><?xpacket begin="﻿" id="W5M0MpCehiHzreSzNTczkc9d"?>
<x:xmpmeta xmlns:x="adobe:ns:meta/" x:xmptk="Adobe XMP Core 5.6-c142 79.160924, 2017/07/13-01:06:39        ">
   <rdf:RDF xmlns:rdf="http://www.w3.org/1999/02/22-rdf-syntax-ns#">
      <rdf:Description rdf:about=""/>
   </rdf:RDF>
</x:xmpmeta>
                                                                                                    
                                                                                                    
                                                                                                    
                                                                                                    
                                                                                                    
                                                                                                    
                                                                                                    
                                                                                                    
                                                                                                    
                                                                                                    
                                                                                                    
                                                                                                    
                                                                                                    
                                                                                                    
                                                                                                    
                                                                                                    
                                                                                                    
                                                                                                    
                                                                                                    
                                                                                                    
                           
<?xpacket end="w"?></metadata>
<defs>
    <style>
      .cls-1 {
        fill: #ffcb69;
        fill-rule: evenodd;
      }
    </style>
  </defs>
  <path class="cls-1" d="M563.273,8561.16v-5.34a3.456,3.456,0,0,0-3.18-3.43l-4.96-8.66a3.417,3.417,0,0,0-4.689-1.26l-17,9.89h-2.987a3.459,3.459,0,0,0-3.454,3.46v20.73a3.457,3.457,0,0,0,3.454,3.45h29.364a3.458,3.458,0,0,0,3.455-3.45v-5.35a2.571,2.571,0,0,0,1.727-2.43v-5.18A2.591,2.591,0,0,0,563.273,8561.16Zm-5.187-8.8h-7.527l5.645-3.28Zm-2.74-4.78-8.22,4.78h-3.41l10.778-6.27Zm-4.033-3.62a1.7,1.7,0,0,1,2.321.63h0l-13.352,7.77h-3.409Zm10.232,32.59a1.725,1.725,0,0,1-1.727,1.72H530.454a1.725,1.725,0,0,1-1.727-1.72v-20.73a1.733,1.733,0,0,1,1.727-1.73h29.364a1.733,1.733,0,0,1,1.727,1.73V8561h-5.181a5.18,5.18,0,1,0,0,10.36h5.181v5.19h0Zm1.728-7.78a0.867,0.867,0,0,1-.864.87h-6.045a3.455,3.455,0,1,1,0-6.91h6.045a0.859,0.859,0,0,1,.864.86v5.18Zm-6.909-4.32a1.73,1.73,0,1,0,1.727,1.73A1.734,1.734,0,0,0,556.364,8564.45Z" transform="translate(-527 -8542)"/>
</svg>
